<?xml version="1.0" encoding="UTF-8"?>
<svg xmlns="http://www.w3.org/2000/svg" width="800" height="800" viewBox="0 0 800 800">

  <defs>
    <pattern id="stripes-jadr-pain" width="12" height="12" patternUnits="userSpaceOnUse" patternTransform="rotate(45)">
      <rect width="12" height="12" fill="#FFF9F2"/>
      <line x1="0" y1="0" x2="0" y2="12" stroke="#9A4E36" stroke-opacity="0.06" stroke-width="1"/>
    </pattern>
    <linearGradient id="bg-jadr-pain" x1="0%" y1="0%" x2="100%" y2="100%">
      <stop offset="0%" stop-color="#ECECEF"/>
      <stop offset="55%" stop-color="#F7F7F9"/>
      <stop offset="100%" stop-color="#E4E4E8"/>
    </linearGradient>
    <linearGradient id="shadow-jadr-pain" x1="0%" y1="0%" x2="0%" y2="100%">
      <stop offset="0%" stop-color="#000" stop-opacity="0.12"/>
      <stop offset="100%" stop-color="#000" stop-opacity="0"/>
    </linearGradient>
  </defs>

  <rect width="800" height="800" fill="url(#bg-jadr-pain)"/>
  <rect width="800" height="800" fill="url(#stripes-jadr-pain)"/>

  
  <rect x="36" y="36" width="117" height="32" rx="16" fill="#9A4E36"/>
  <text x="54" y="57" fill="#FFF9F2" font-size="14" font-weight="700" font-family="Tahoma, Arial, sans-serif">المشكلة</text>
  
  
  <g opacity="0.22" transform="translate(620,28)">
    <rect width="72" height="72" rx="14" fill="#9A4E36" fill-opacity="0.15"/>
    <text x="36" y="28" text-anchor="middle" fill="#9A4E36" font-size="9" font-family="Georgia, serif">riads</text>
    <text x="36" y="52" text-anchor="middle" fill="#9A4E36" font-size="22" font-weight="700" font-family="Georgia, serif">R</text>
  </g>
  <text x="720" y="130" text-anchor="end" fill="#2D201A" font-size="36" font-weight="800" font-family="Tahoma, Arial, sans-serif">جدر</text>
  <text x="720" y="162" text-anchor="end" fill="#6B5A52" font-size="16" font-family="Tahoma, Arial, sans-serif">روتين رياض — حل مركّز</text>
  
  
  <ellipse cx="280" cy="455" rx="72" ry="14" fill="url(#shadow-jadr-pain)"/>
  <rect x="242" y="280" width="76" height="168" rx="18" fill="#FAFAFA" stroke="#DDD" stroke-width="1.5"/>
  <rect x="248" y="292" width="64" height="140" rx="12" fill="#FFFFFF"/>
  <rect x="266" y="248" width="28" height="36" rx="6" fill="#1A1A1A"/>
  <circle cx="280" cy="242" r="10" fill="#2A2A2A"/>
  
  <rect x="170" y="430" width="220" height="118" rx="12" fill="#FFF9F2" fill-opacity="0.96" stroke="#9A4E36" stroke-width="2.5"/>
  <text x="280" y="458" text-anchor="middle" fill="#5C4A42" font-size="11" font-weight="700" font-family="Tahoma, Arial, sans-serif">للجمال رياض</text>
  <text x="280" y="474" text-anchor="middle" fill="#9A4E36" font-size="11" font-weight="700" font-family="Georgia, serif">riads</text>
  <text x="280" y="502" text-anchor="middle" fill="#2D201A" font-size="28" font-weight="800" font-family="Tahoma, Arial, sans-serif">جدر</text>
  <text x="280" y="524" text-anchor="middle" fill="#5C4A42" font-size="13" font-weight="600" font-family="Tahoma, Arial, sans-serif">زيت تطويل الشعر</text>
  <text x="280" y="542" text-anchor="middle" fill="#8A7A72" font-size="11" font-family="Tahoma, Arial, sans-serif">50ml</text>
  <text x="620" y="520" text-anchor="end" fill="#B42318" font-size="22" font-weight="800">✕</text>
  <text x="600" y="555" text-anchor="end" fill="#2D201A" font-size="18" font-family="Tahoma, Arial, sans-serif">الشعر خفيف وتساقطه مزعج</text>
  <rect x="0" y="792" width="800" height="8" fill="#9A4E36"/>
</svg>